<?xml version="1.0" encoding="UTF-8"?>
<svg xmlns="http://www.w3.org/2000/svg" viewBox="0 0 16 16" width="16pt" version="1.1" xmlns:xlink="http://www.w3.org/1999/xlink" height="16pt" xmlns:inkscape="http://www.inkscape.org/namespaces/inkscape">
 <defs>
  <linearGradient y1="0" gradientUnits="userSpaceOnUse" gradientTransform="matrix(1 0 0 1 0 0)" x1="0" x2="16" y2="16" id="Grad0">
   <stop offset="0%" stop-opacity="1" stop-color="#ffffff"/>
   <stop offset="50%" stop-opacity="1" stop-color="#e50063"/>
  </linearGradient>
 </defs>
 <g inkscape:groupmode="layer" inkscape:label="Hintergrund" id="Hintergrund">
  <g transform="translate(0, 0)">
   <path style="fill:url(#Grad0); fill-rule:evenodd;" d="M0 0 L16 0 L16 16 L0 16 L0 0 Z"/>
   <path style="fill:none; stroke:none;" d="M0 0 L16 0 L16 16 L0 16 L0 0 Z"/>
  </g>
  <path transform="translate(1, 0.999598)" style="fill:#ffffff; fill-rule:nonzero;stroke:none;" d="M0.870333 0.0008369 L0 0.871168 L1.91473 3.55266 C2.07829 3.78178 2.34255 3.91765 2.62405 3.91733 L2.68498 3.91733 C2.91608 3.91715 3.13778 4.0089 3.30117 4.17234 L5.62931 6.50048 L3.35165 8.81038 C2.56179 8.57783 1.70855 8.73109 1.04901 9.22405 C0.389474 9.71692 0.000762674 10.4918 0 11.3152 C0.0014249 12.3371 0.598931 13.2643 1.529 13.6878 C2.45907 14.1113 3.55071 13.9533 4.32249 13.2834 C5.09427 12.6135 5.40429 11.5549 5.11582 10.5745 L7.42568 8.29685 L8.26816 9.13937 L8.00271 9.93485 C7.89868 10.2476 7.98021 10.5922 8.21333 10.8252 L11.1342 13.746 C11.474 14.0857 12.025 14.0857 12.3648 13.746 L13.7452 12.3657 C14.0849 12.0258 14.0849 11.4749 13.7452 11.135 L10.8243 8.21417 C10.5913 7.98105 10.2467 7.89951 9.93398 8.00355 L9.13849 8.269 L8.30298 7.43348 L10.6355 5.13319 C11.4197 5.34253 12.2566 5.17589 12.9009 4.68214 C13.5452 4.1884 13.9236 3.42352 13.9253 2.61183 C13.9253 2.37771 13.8949 2.15056 13.8366 1.93559 L11.974 3.79897 L10.444 3.48217 L10.1272 1.95299 L11.9906 0.0896111 C11.0884 -0.152971 10.1253 0.10499 9.46513 0.766059 C8.80498 1.42713 8.5483 2.39055 8.7921 3.29243 L6.49442 5.62319 L4.17151 3.30201 C4.00827 3.13883 3.91655 2.91749 3.9165 2.68668 L3.9165 2.62489 C3.91652 2.34369 3.78069 2.07982 3.55183 1.91644 L0.870333 0.0008369 M9.26556 9.26643 C9.3472 9.18454 9.45808 9.13858 9.57366 9.13858 C9.68924 9.13858 9.80012 9.18454 9.88176 9.26643 L12.4928 11.8774 C12.6629 12.0476 12.6629 12.3235 12.4928 12.4936 C12.3226 12.6638 12.0467 12.6638 11.8766 12.4936 L9.26556 9.88263 C9.18375 9.80099 9.13771 9.69011 9.13771 9.57453 C9.13771 9.45886 9.18375 9.34807 9.26556 9.26643 M2.611 9.57453 L3.02093 9.78515 L3.48133 9.80778 L3.73112 10.1951 L4.11841 10.4449 L4.14104 10.9053 L4.35166 11.3152 L4.14104 11.7251 L4.11841 12.1855 L3.73112 12.4353 L3.48133 12.8226 L3.02093 12.8452 L2.611 13.0559 L2.20107 12.8452 L1.74067 12.8226 L1.49088 12.4353 L1.10358 12.1855 L1.08095 11.7251 L0.870333 11.3152 L1.08095 10.9053 L1.10358 10.4449 L1.49088 10.1951 L1.74067 9.80778 L2.20107 9.78515 L2.611 9.57453 "/>
 </g>
</svg>
